<svg xmlns="http://www.w3.org/2000/svg" viewBox="0 0 32 32" width="32" height="32">
  <defs>
    <linearGradient id="whatsappGradient" x1="0%" y1="0%" x2="100%" y2="100%">
      <stop offset="0%" style="stop-color:#25D366;stop-opacity:1" />
      <stop offset="100%" style="stop-color:#128C7E;stop-opacity:1" />
    </linearGradient>
  </defs>
  <circle cx="16" cy="16" r="15" fill="url(#whatsappGradient)" stroke="#fff" stroke-width="1"/>
  <path d="M22.5 9.5c-1.1-1.1-2.6-1.7-4.2-1.7-6.5 0-11.8 5.3-11.8 11.8 0 2.1.5 4.1 1.5 5.8L6 26l5.4-1.4c1.6.9 3.4 1.4 5.3 1.4h.1c6.5 0 11.8-5.3 11.8-11.8 0-3.1-1.2-6-3.3-8.2zm-4.2 17.9h-.1c-1.7 0-3.3-.5-4.8-1.3l-.3-.2-3.5 1 1-3.4-.2-.3c-.9-1.4-1.3-3-1.3-4.7 0-5.4 4.4-9.8 9.8-9.8 2.6 0 5.1.9 7 2.7 1.8 1.8 2.7 4.3 2.7 7 0 5.4-4.4 9.8-9.8 9.8z" fill="white"/>
  <path d="M18.1 14.5c-.2-.4-.4-.4-.6-.4-.2 0-.3 0-.5.2-.2.2-.8.8-.8 1.9 0 1.1.8 2.2 1 2.4.2.2.9.9 2.1 1.3 1.5.5 2.1.4 2.3.4.2 0 .6-.1.9-.5.3-.4.3-1 .1-1.1-.2-.1-.4-.2-.6-.3-.2-.1-.9-.4-1.5-.8-.6-.4-.9-.9-.9-1.4 0-.5.4-.8.6-.9.2-.1.4-.1.6 0 .2.1.4.3.5.5.1.2.1.4.1.6 0 .2-.1.4-.2.5-.3.3-.7.7-1.1 1-.1.1-.2.2-.1.4.1.2.4.8.9 1.4.8.9 1.4 1.1 1.9 1.2.5.1.9.1 1.3-.1.4-.2.8-.5 1.1-.9.3-.4.5-.9.5-1.4-.1-.9-.5-1.7-1.1-2.3-.6-.6-1.4-1-2.2-1.3-1.1-.4-2.2-.6-3.4-.6-.5 0-1 0-1.4.1z" fill="white"/>
</svg>