<?xml version="1.0" encoding="UTF-8"?>
<svg xmlns="http://www.w3.org/2000/svg" version="1.2" viewBox="0 0 1986 456" width="1986" height="456">
  <title>gmz-white-logo-svg</title>
  <style>
		.s0 { fill: #f7f7f7 } 
		.s1 { fill: #d22026 } 
	</style>
  <path id="Layer" class="s0" d="m649.8 455.8h96.5l-213.4-455.5h-1.7l-211.7 455.5h94.9c52.4-111.7 59.2-127 118.5-255.7 59.3 130.4 62.6 138.9 116.9 255.7z"></path>
  <path id="Layer" class="s0" d="m442.2 200.5h-205.3v81.8h113.5c-3.3 53.4-48.4 85.1-110.1 85.1-58.4 0-103.5-28.4-126.8-70.1l-25.1 15-51.7 30c38.4 66.8 113.5 113.5 198.6 113.5 115.1 0 208.6-80.1 208.6-218.6 0-11.6 0-23.3-1.7-36.7zm-328.7-43.4c25-41.7 71.7-68.4 118.4-68.4 38.4 0 78.5 18.4 111.8 53.4l48.4-73.4c-41.7-41.7-103.4-68.4-160.2-68.4-83.4 0-155.1 45.1-195.2 113.5l51.7 30 25.1 13.3z"></path>
  <path id="Layer" class="s0" d="m1468.3 455.6h90.4v-455.6h-90.4v455.6z"></path>
  <path id="Layer" class="s0" d="m1087.6 0.1l-213.5 294.8-211.7-294.8h-5.1v455.7h89.8v-193.1l127 186.3h1.7l216.9-310v-138.9h-5.1z"></path>
  <path id="Layer" fill-rule="evenodd" class="s0" d="m1527.8 229.5c0-127.3 106.7-229.5 227.8-229.5 121 0 229.5 105.5 229.5 229.5 0 124-103.9 226.1-229.5 226.1-125.6 0-227.8-98.8-227.8-226.1zm368.5-1.7c0-75.4-68.3-139-140.7-139-77.1 0-139.1 62-139.1 139 0 77.1 62 139.1 139.1 139.1 77 0 140.7-63.7 140.7-139.1z"></path>
  <path id="Layer" class="s0" d="m1118.3 455.6h100.8l220.7-455.3h-321.5v90.4h175.5l-175.5 364.9z"></path>
  <path id="Layer" class="s0" d="m532.9 317l32.2 69.4 32.2 69.4h-64.4-66l33.8-69.4 32.2-69.4z"></path>
  <path id="Layer" class="s1" d="m131.8 227.2l-65.1 38.4-66.7 38.4v-76.8-76.8l66.7 38.4 65.1 38.4z"></path>
  <path id="Layer" class="s0" d="m1039.2 337.7c32.6 0 59 26.5 59 59.1 0 32.6-26.4 59-59 59-32.6 0-59-26.4-59-59 0-32.6 26.4-59.1 59-59.1z"></path>
  <path id="Layer" class="s0" d="m1707.3 183.5h96.5v97.5h-96.5z"></path>
  <path id="Layer" class="s0" d="m1386.1 294.1l43.5 81.7 43.4 80h-86.9-86.9l43.4-80 43.5-81.7z"></path>
</svg>
