<?xml version="1.0" encoding="utf-8"?>
<!-- Generator: Adobe Illustrator 18.1.1, SVG Export Plug-In . SVG Version: 6.00 Build 0)  -->
<svg version="1.1" id="Layer_1" xmlns="http://www.w3.org/2000/svg" xmlns:xlink="http://www.w3.org/1999/xlink" x="0px" y="0px"
	 viewBox="0 0 1985 455" enable-background="new 0 0 1985 455" xml:space="preserve">
<path fill="#010101" d="M651.7,444.8h96.4L534.9,4.9h-1.7L321.8,444.8h94.7c52.4-107.9,59.2-122.6,118.4-246.9
	C594.1,323.8,597.5,331.9,651.7,444.8z"/>
<path fill="#010101" d="M444.3,198.2h-205v78.9h113.3c-3.3,51.6-48.3,82.2-110,82.2c-58.3,0-103.3-27.4-126.7-67.7l-25,14.5
	l-51.7,29c38.3,64.5,113.3,109.6,198.3,109.6c115,0,208.3-77.3,208.3-211.1C446,222.4,446,211.1,444.3,198.2
	C444.3,198.2,444.3,198.2,444.3,198.2z M116,156.3c25-40.3,71.7-66.1,118.3-66.1c38.3,0,78.3,17.7,111.7,51.6l48.3-70.9
	C352.6,30.7,291,4.9,234.3,4.9c-83.3,0-155,43.5-195,109.6l51.7,29L116,156.3L116,156.3z"/>
<polygon fill="#010101" points="1469.2,444.6 1559.5,444.6 1559.5,4.6 1469.2,4.6 "/>
<polygon fill="#010101" points="1089,4.7 875.8,289.4 664.2,4.7 659.2,4.7 659.2,444.8 748.8,444.8 748.8,258.3 875.8,438.2 
	877.4,438.2 1094,138.8 1094,4.7 "/>
<path fill="#010101" d="M1756.2,444.6c125.5,0,229.2-98.7,229.2-218.4S1877.1,4.6,1756.2,4.6s-227.5,98.7-227.5,221.6
	S1630.7,444.6,1756.2,444.6z M1756.2,358.9c-77,0-138.9-59.9-138.9-134.3s61.9-134.3,138.9-134.3c72.4,0,140.6,61.5,140.6,134.3
	S1833.2,358.9,1756.2,358.9z"/>
<polygon fill="#010101" points="1119.7,444.6 1220.4,444.6 1440.8,4.9 1119.7,4.9 1119.7,92.1 1295,92.1 "/>
<polygon fill="#010101" points="534.9,310.7 567.1,377.7 599.2,444.8 534.9,444.8 469,444.8 502.8,377.7 "/>
<polygon fill="#D32328" points="134.3,224 69.3,261.1 2.7,298.1 2.7,224 2.7,149.9 69.3,186.9 "/>
<path fill="#010101" d="M1040.6,330.7c32.6,0,59,25.5,59,57s-26.4,57-59,57c-32.6,0-59-25.5-59-57S1008.1,330.7,1040.6,330.7z"/>
<rect x="1708" y="181.8" fill="#010101" width="96.3" height="94.2"/>
<polygon fill="#010101" points="1387.1,288.6 1430.6,367.5 1474,444.8 1387.1,444.8 1300.3,444.8 1343.7,367.5 "/>
</svg>
